<?xml version="1.0" encoding="utf-8"?>
<!-- Generator: Adobe Illustrator 23.0.2, SVG Export Plug-In . SVG Version: 6.00 Build 0)  -->
<svg version="1.1" id="Ebene_1" xmlns="http://www.w3.org/2000/svg" xmlns:xlink="http://www.w3.org/1999/xlink" x="0px" y="0px"
	 viewBox="0 0 200 49.13" style="enable-background:new 0 0 200 49.13;" xml:space="preserve">
<style type="text/css">
	.st0{fill:#FFFFFF;}
</style>
<title>gf-logo</title>
<g>
	<path class="st0" d="M2.23,23.1c0-3.52,0.8-10.34,4.68-12.22c2.23-1.07,8.03-0.62,8.03,2.94c0,0.53-0.22,1.11-0.98,1.11
		c-1.6,0-2.19-2.41-4.46-2.41H9.32C5.17,12.76,4.46,19,4.46,22.34v0.89c0.22,4.46,0.22,7.76,1.16,11.95
		c0.45,2.1,1.65,4.33,4.24,4.33h0.22c4.06-0.22,4.19-5.53,4.06-8.07l-0.36-6.6c-1.29,0-2.59,0.36-4.01,0.22
		c-0.4-0.27-0.53-1.38-0.53-1.43c0-1.34,3.08-1.07,5.97-1.11c1.34,0.36,1.16,2.59,1.29,5.35v0.45c0.27,4.86,0.67,13.11-5.8,13.42
		c-0.31,0-0.58,0.04-0.89,0C3.79,42.09,2.23,34.74,2.23,23.1z"/>
	<path class="st0" d="M29.38,6.69c7.98,0.89,6.82,19.89,6.38,25.82c-0.31,3.25-1.96,8.92-6.42,8.92c-7.89,0-8.25-13.46-8.25-18.68
		C21.09,17.08,21.49,6.69,29.38,6.69z M23.63,22.57c0,13.06,2.41,16.63,5.57,16.63c4.37,0,4.41-11.32,4.41-14.13v-0.18
		c0-3.43-0.94-15.92-5.17-15.92c-3.34,0-4.77,7.45-4.77,9.68C23.63,20.07,23.63,21.32,23.63,22.57z"/>
	<path class="st0" d="M40.66,42.27c-0.04,0-0.58-23.01-0.58-26.04c0-0.85-0.54-7.67-0.58-8.52V7.41c0-0.36,0-0.49,0.31-0.8
		c0.13-0.04,0.67-0.09,0.85-0.09c0.8,0,1.16-0.04,1.43,0.94c0.4,1.74,0.22,2.81,0.27,4.55c0.22,9.1,0.31,18.33,0.85,27.51h0.31
		c1.87,0,3.66-0.62,5.57-0.62c0.71,0,1.52,0.18,1.52,1.07c0,0.49-0.27,0.89-0.89,0.98L40.66,42.27z"/>
	<path class="st0" d="M53.68,33.67c0.04-3.83,0.04-21.67,0-25.46V8.03c0-0.98,0.36-2.01,1.29-2.41h0.4c1.78,0,3.66,0.4,4.99,1.6
		c4.77,4.28,5.66,11.95,5.39,18.01c-0.36,8.6-2.36,16.81-9.72,17.7c-1.43,0.18-2.36-0.04-2.36-1.69V33.67z M56.22,25.06
		c0,3.97-0.09,10.75,0,15.29c5.53-0.85,7.04-9.67,7.04-14.58c0-3.52-0.22-17.3-6.42-17.3h-0.31C56.44,10.97,56.22,22.61,56.22,25.06
		z"/>
	<path class="st0" d="M69.24,11.2c0-2.27,1.47-3.66,5.13-3.88c1.11,0,4.55-0.49,4.64,1.34c0,0.62-0.71,0.8-1.2,0.85
		C76.46,9.46,72,8.92,72,11.33v0.36c0.18,2.9,0.4,6.47,0.71,9.01c0.67,0.09,1.74,0.09,2.5,0.04c0.71-0.04,3.3-1.07,3.3,0.54
		c0,2.1-4.64,1.52-5.66,1.92c-0.36,4.86,0.8,9.72,0.85,15.16v0.18c0,1.92-2.05,1.52-2.32,0.18c-0.54-4.37-1.92-18.73-2.14-27.42
		V11.2z"/>
	<path class="st0" d="M83.77,8.79c0.31-0.89,0.54-0.94,1.47-0.94c1.29,0,1.29,0.58,1.29,1.87c0,0.13-0.04,0.71-0.04,0.8l-1.34,30.5
		c-0.09,1.96-2.59,2.14-2.59,0.85L83.77,8.79z"/>
	<path class="st0" d="M90.91,34.16c1.78,0.54,0.09,4.46,2.32,5.75h0.27c2.5,0,3.21-3.43,3.21-5.26c0-2.45-0.18-5.08-1.2-7.4
		c-2.1-4.82-6.6-8.83-6.6-14.36c0-2.5,1.52-6.64,4.59-6.64c1.96,0,5.22,1.56,5.22,3.88c0,0.85-0.27,1.34-1.16,1.34
		c-1.74,0-1.2-2.68-3.66-2.68c-2.27,0-2.45,3.17-2.45,4.73c0,4.5,3.79,7.67,5.8,11.41c1.83,3.43,2.76,8.43,1.69,11.82
		c-0.71,2.32-2.72,5.48-5.44,5.48c-3.3,0-4.33-4.1-4.33-6.78C89.17,34.69,90.19,33.94,90.91,34.16z"/>
	<path class="st0" d="M114.94,8.83c0,1.56-2.59,1.25-3.21,1.25h-0.27c-4.32,0-6.24,8.96-6.24,14c0,5.71,0.36,9.76,4.28,13.02
		c1.92,1.61,4.86-0.04,5.53,1.16c0.89,1.56-0.76,2.1-2.18,2.1c-10.12-0.22-11.68-13.64-9.63-22.34c1.07-4.64,3.83-10.83,9.63-10.83
		C113.78,7.18,114.94,7.81,114.94,8.83z"/>
	<path class="st0" d="M121.22,28.63V41.2c0,2.01-2.45,1.25-2.54,0.67c0-1.61,0.09-9.01,0.09-10.57c0-3.48,0.31-21.45,0.36-24.88
		c0.36-0.36,0.76-0.36,1.25-0.36c0.62,0,0.98,0.4,1.38,0.94c0,4.28-0.4,10.39-0.4,14.94c0,0.62,0,3.48,0.04,4.06
		c0.36,0.4,0.67,0.31,1.07,0.31c1.69,0,3.39,0,5.04,0.09c0.36-5.04,0.54-13.73,0.4-19.4V6.78c0-0.67,0.54-0.98,1.16-0.98
		c0.54,0,1.16,0.45,1.47,0.89c0,0.98-0.13,3.83-0.18,4.77c-0.62,20.46,0.49,30.81-0.98,30.85c-1.56,0.04-1.56-1.87-1.56-4.86
		c0-0.8-0.22-8.03-0.22-8.83H121.22z"/>
	<path class="st0" d="M139.1,9.5c-2.76,0.18-4.01,0.13-4.1-0.62c0.09-1.52,0.09-2.05,4.73-1.78h3.75c0.98,0.04,2.63,0.18,2.63,1.47
		c0,0.4-0.49,0.85-0.89,0.85h-3.75l0.85,28.31c0,0.4-0.89,0.62-1.16,0.62s-1.16-0.22-1.16-0.62L139.1,9.5z"/>
	<path class="st0" d="M148.1,10.17c0-0.8,0.76-1.56,1.56-1.56h7.04c0.27,0,1.16,0.67,1.2,0.89c0.04,0.09,0.04,0.13,0.04,0.22
		c0,0.89-1.2,1.29-1.92,1.29h-5.35l0.22,14.8l4.82-0.71h0.22c2.1,0,1.29,2.05-0.49,2.32L151,28.09l-0.13,11.64
		c0.4,0.04,1.92,0.04,2.32,0.04c2.99,0,5.17-1.03,5.31,1.03c0.09,1.52-9.9,1.34-9.9,0.49L148.1,10.17z"/>
	<path class="st0" d="M164.2,8.79c0.31-0.89,0.53-0.94,1.47-0.94c1.29,0,1.29,0.58,1.29,1.87c0,0.13-0.04,0.71-0.04,0.8l-1.34,30.5
		c-0.09,1.96-2.59,2.14-2.59,0.85L164.2,8.79z"/>
	<path class="st0" d="M182.17,8.83c0,1.56-2.59,1.25-3.21,1.25h-0.27c-4.32,0-6.24,8.96-6.24,14c0,5.71,0.36,9.76,4.28,13.02
		c1.92,1.61,4.86-0.04,5.53,1.16c0.89,1.56-0.76,2.1-2.18,2.1c-10.12-0.22-11.68-13.64-9.63-22.34c1.07-4.64,3.83-10.83,9.63-10.83
		C181.01,7.18,182.17,7.81,182.17,8.83z"/>
	<path class="st0" d="M188.45,28.63V41.2c0,2.01-2.45,1.25-2.54,0.67c0-1.61,0.09-9.01,0.09-10.57c0-3.48,0.31-21.45,0.36-24.88
		c0.36-0.36,0.76-0.36,1.25-0.36c0.62,0,0.98,0.4,1.38,0.94c0,4.28-0.4,10.39-0.4,14.94c0,0.62,0,3.48,0.04,4.06
		c0.36,0.4,0.67,0.31,1.07,0.31c1.69,0,3.39,0,5.04,0.09c0.36-5.04,0.54-13.73,0.4-19.4V6.78c0-0.67,0.54-0.98,1.16-0.98
		c0.54,0,1.16,0.45,1.47,0.89c0,0.98-0.13,3.83-0.18,4.77c-0.62,20.46,0.49,30.81-0.98,30.85c-1.56,0.04-1.56-1.87-1.56-4.86
		c0-0.8-0.22-8.03-0.22-8.83H188.45z"/>
</g>
</svg>
